<svg xmlns="http://www.w3.org/2000/svg" viewBox="0 0 150 339.2"><defs><style>.a{fill:#fff;}.b{fill:#c8202f;}.c{fill:#1e4388;}</style></defs><title>nba-logoman-word-white</title>
<path class="a" d="M114.5,0H35.1A35.1,35.1,0,0,0,0,35.1V304a35.2,35.2,0,0,0,35.1,35.2h79.4A35.3,35.3,0,0,0,149.7,304V35.1A35.3,35.3,0,0,0,114.5,0"/><path class="b" d="M94.8,62.1v1.1c2.4,1.4,3.6,2.6,6.1,4.1,6.5,4.1,14.5,11.3,13.4,36.3,1.8,5.4,2.6,16.1,4.3,19.6,3.4,6.7,5.6,11,6.6,17.4,0,0,1,9.8,2.2,10.5,6.7,1.5,4.8,2.2,5.7,3.3s4.9,1.3,4.9,4.9a28.2,28.2,0,0,1,3.1,5.6V35.1A26.8,26.8,0,0,0,114.4,8.3H88.7c4.1,1.5,6.4,3.2,7.8,5.9,3.3.3,7.3,7.7,1.1,18.7,2.7,1.8.6,4.5-1.4,7.7-.6,1-1.2,2.8-3,2.7-2.3,4.9-5.1,9.7-7.3,10-.6.8-1.1,2.9-.1,3.9a31.6,31.6,0,0,1,9,4.9m46.5,120.5a23.9,23.9,0,1,1-27.9-32.1c-2.8-6.9-8.6-18.1-10.3-21.8s-5.6-26.4-6.4-30.9c-.2-1-10.3,5.9-10.3,6.3S78.8,123,78.5,124s-.2,3.1-.2,3.1,3.4.4,5.4,6.4,7.9,27.9,7.9,27.9-1.6,1.7-1.7,1.6c7.6,25.3,4.9,36.2,8.3,43.6,4.3,10.5,5.4,9.1,9.1,17.9,2.6,6.4,5.5,31.6,6.5,32.7,4.1,5.2,6.3,9.2,6.3,12.1s-3.5,11.6-2.2,16.7c.8,3,1.2,9.6,2.5,10.9s1.3,2.5.6,3.6a2.5,2.5,0,0,0-.4,1.4c2.3,7.9,9.5,21.5-2.3,28.6h.3A26.7,26.7,0,0,0,141.2,304V182.6Z"/><path class="c" d="M111.1,298.8c-4.3-3.8-1.4-5.5-1.6-7-2.8-11.7-12.2-18.9-7.3-22.7-1.2-3.9-3.6-8.7-3.5-8.7-14.5-8.3-26.9-21.9-29-23.9s-6.9-5.6-7.7-7.8c-3.5-3.2-20.6-27.5-24.6-36.5l-7-1c-3.2-12.9-13.7-23.8-14-36.7-.1-4.9,2.2-15.4,3.1-17.5s4.9-5.6,4.9-5.6v-3.5c-15.2.4-10.8-1.1-13.4-7-1.8-4.1-.5-5,.1-7.8,2-8.4,8.8-21.3,11.6-27.1.9-3,3.8-10.1,3.8-10.1,11.3-23,15.5-21.3,29-22.6l.7-1c13.5-.6,11.3-1.6,13.2-14.6-2,.8-2.5-4.1-2.5-4.1-1.1-7.4,2-6,3.5-6.1C70.7,15.4,72,11.6,80.7,8.2H35.1A26.8,26.8,0,0,0,8.3,35V303.9a26.9,26.9,0,0,0,26.8,26.9h79.4c-9.1-4.9-3.7-14.2-3.4-32Z"/></svg>