<?xml version="1.0" encoding="iso-8859-1"?>
<!-- Generator: Adobe Illustrator 16.0.0, SVG Export Plug-In . SVG Version: 6.00 Build 0)  -->
<!DOCTYPE svg PUBLIC "-//W3C//DTD SVG 1.1//EN" "http://www.w3.org/Graphics/SVG/1.1/DTD/svg11.dtd">
<svg version="1.1" fill="#FFF" id="Capa_1" xmlns="http://www.w3.org/2000/svg" xmlns:xlink="http://www.w3.org/1999/xlink" x="0px" y="0px"
	 width="563.366px" height="563.365px" viewBox="0 0 563.366 563.365" style="enable-background:new 0 0 563.366 563.365;"
	 xml:space="preserve">
<g>
	<g>
		<circle cx="319.933" cy="52.594" r="52.594"/>
		<path d="M264.155,308.189c-0.01,0.315-0.096,0.641-0.096,0.985v4.446c10.423,3.318,30.16,7.938,58.561,7.497
			c22.931-0.354,41.014-3.271,53.091-5.977V302.51c-12.813,4.753-30.485,7.392-52.938,7.87c-1.998,0.028-3.949,0.057-5.861,0.057
			c-23.467,0-41.09-3.088-52.756-9.237V308.189z"/>
		<path d="M264.06,397.255c5.651,2.027,18.934,4.925,47.803,4.753v-10.901c-26.125-0.794-40.22-3.921-47.803-7.239V397.255z"/>
		<path d="M375.711,385.034c-9.734,3.155-24.824,5.891-48.014,6.216v10.758c37.074-0.125,46.092-5.527,47.287-6.397
			c0.21-0.249,0.487-0.401,0.727-0.612V385.034z"/>
		<path d="M369.342,116.347c-2.266,14.143-3.365,43.271,14.105,81.473l-0.335,0.153l16.505,32.158v42.897l0.182-0.038
			c0.124,0.507,0.812,3.605-0.182,7.832V328.3c0,10.557,8.568,19.115,19.125,19.115s19.125-8.567,19.125-19.115V225.522
			c0-3.031-0.727-6.043-2.113-8.75l-46.216-90.041c-2.859-5.556-8.09-9.075-13.827-10.05v-0.325h-6.369V116.347z"/>
		<path d="M327.698,539.449c0,13.206,10.71,23.916,23.906,23.916c13.206,0,23.906-10.71,23.906-23.916V410.996
			c-8.539,2.907-23.122,5.269-47.812,5.355V539.449z"/>
		<path d="M264.06,539.449c0,13.206,10.701,23.916,23.897,23.916c13.205,0,23.906-10.71,23.906-23.916V416.332
			c-0.756,0.01-1.578,0.028-2.324,0.028c-22.176,0-36.375-1.797-45.488-4.169v127.258H264.06z"/>
		<path d="M259.097,165.364c5.393-22.127,4.906-40.048,4.169-48.491c-2.563,0.564-5.059,1.559-7.306,3.222l-86.062,63.763
			c-2.697,1.989-4.82,4.666-6.159,7.736l-36.653,84.475c-4.208,9.696,0.229,20.941,9.926,25.159
			c1.205,0.525,2.429,0.898,3.672,1.166c0,0.144-0.019,0.277-0.019,0.411c0,29.883,24.136,53.942,53.78,53.942
			c29.825,0,54.114-24.06,54.114-53.942c0-29.672-24.289-53.865-54.114-53.865c-5.145,0-10.098,0.774-14.812,2.132l17.155-39.521
			L259.097,165.364z"/>
		<path d="M319.981,257.709c6.751,0,11.207-4.246,11.207-10.06c0-6.847-4.981-10.576-12.546-12.651
			c-6.32,1.769-9.954,6.215-9.954,11.714C308.477,252.526,312.829,257.709,319.981,257.709z"/>
		<path d="M321.128,225.541c4.667-1.339,8.396-5.059,8.396-10.155c0-4.667-2.802-9.543-9.64-9.543c-6.426,0-9.754,4.255-9.754,9.132
			C310.131,220.482,314.703,223.801,321.128,225.541z"/>
		<path d="M264.155,283.317c0.029,0.048,0.048,0.096,0.086,0.125c4.036,5.077,17.012,13.464,58.226,12.574
			c29.214-0.612,44.857-4.943,53.234-9.104v-85.556l-0.956,0.44c-17.968-39.273-17.547-69.395-15.156-85.451h-8.864
			c-2.286,12.805-9.41,43.223-25.608,43.223c-14.947,0-25.915-30.418-29.874-43.223h-22.385c1.033,11.312,1.53,36.261-8.711,66.087
			v100.884H264.155z M298.006,215.5c0-10.997,9.744-18.465,22.501-18.465c14.621,0,21.152,8.711,21.152,17.002
			c0,5.718-3.013,11.618-10.376,15.262v0.296c7.363,2.802,12.853,8.606,12.853,17.012c0,12.02-10.155,20.11-24.576,20.11
			c-15.759,0-23.954-9.132-23.954-18.561c0-8.291,4.877-14,12.651-17.413v-0.315C301.219,227.004,298.006,221.41,298.006,215.5z"/>
	</g>
</g>
<g>
</g>
<g>
</g>
<g>
</g>
<g>
</g>
<g>
</g>
<g>
</g>
<g>
</g>
<g>
</g>
<g>
</g>
<g>
</g>
<g>
</g>
<g>
</g>
<g>
</g>
<g>
</g>
<g>
</g>
</svg>
